PathFileType	4	(X/Y/Z)	c:/Users/goper/Files/vsCode/490R/osim_files/A06/A06_SSWS_03.trc
DataRate	CameraRate	NumFrames	NumMarkers	Units                	OrigDataRate	OrigDataStartFrame	OrigNumFrames
120.00	120.00	4	36	mm	120.0	572	1142
                Frame#	Time	LPSIS			LASIS			LTH1			LTH2			LTH3			LTH4			LLFE			LMFE			LSH1			LSH2			LSH3			LSH4			LLMAL			LMMAL			LCAL			LMTP5			LTOE			LMTP1			RPSIS			RASIS			RTH1			RTH2			RTH3			RTH4			RLFE			RMFE			RSH1			RSH2			RSH3			RSH4			RLMAL			RMMAL			RCAL			RMTP1			RTOE			RMTP5		
		X1	Y1	Z1	X2	Y2	Z2	X3	Y3	Z3	X4	Y4	Z4	X5	Y5	Z5	X6	Y6	Z6	X7	Y7	Z7	X8	Y8	Z8	X9	Y9	Z9	X10	Y10	Z10	X11	Y11	Z11	X12	Y12	Z12	X13	Y13	Z13	X14	Y14	Z14	X15	Y15	Z15	X16	Y16	Z16	X17	Y17	Z17	X18	Y18	Z18	X19	Y19	Z19	X20	Y20	Z20	X21	Y21	Z21	X22	Y22	Z22	X23	Y23	Z23	X24	Y24	Z24	X25	Y25	Z25	X26	Y26	Z26	X27	Y27	Z27	X28	Y28	Z28	X29	Y29	Z29	X30	Y30	Z30	X31	Y31	Z31	X32	Y32	Z32	X33	Y33	Z33	X34	Y34	Z34	X35	Y35	Z35	X36	Y36	Z36

572	4.75833	-1281.19165	1001.55560	309.37683	-1464.62561	950.03845	394.15967	-1499.43811	598.35126	430.16064	-1522.63062	563.50238	424.73102	-1558.48596	624.51160	419.87671	-1570.39429	583.63879	416.19470	-1567.38220	503.76685	409.73062	-1570.01038	500.30008	297.70752	-1477.98169	437.28702	420.38257	-1464.75562	392.26740	424.93253	-1534.87134	413.44122	414.85248	-1516.50195	375.30487	417.81482	-1361.77441	162.08470	377.99738	-1392.22241	162.04797	296.78870	-1302.98560	175.37596	319.89642	-1444.42004	68.10054	404.23990	-1493.56824	72.58907	355.08463	-1473.65125	72.28462	313.91150	-1293.19910	1012.48590	179.32831	-1471.52881	966.97791	133.56575	-1334.97766	592.78735	103.88693	-1338.95264	550.29132	105.34030	-1397.87793	591.84100	112.90681	-1392.08582	548.29041	110.35390	-1358.06799	435.80457	135.88725	-1360.56836	440.71356	225.48277	-1330.07373	281.88562	156.04416	-1328.15356	234.49490	159.66017	-1389.74207	276.33981	166.99429	-1380.44653	228.69319	165.33194	-1321.46606	101.14301	157.60571	-1334.06689	107.11867	240.99303	-1264.56189	82.61538	207.00606	-1465.09778	54.84264	235.92137	-1482.30298	67.19247	194.01006	-1453.83923	51.53175	147.55084
573	4.76667	-1290.20337	1001.82916	309.08566	-1473.45996	949.89172	393.95447	-1511.01624	600.09619	431.35281	-1534.75159	565.46765	425.48904	-1569.82153	626.91064	420.46964	-1582.17285	586.25006	416.96460	-1580.08813	506.29886	410.37885	-1583.48218	502.64581	298.65784	-1493.50183	436.01010	420.33185	-1481.21545	391.15173	424.13675	-1549.78296	414.57748	416.37247	-1534.58154	375.92233	418.49918	-1391.66345	154.77600	377.67065	-1424.08875	155.84456	296.64752	-1332.89453	164.79172	318.50113	-1478.70630	65.65815	405.63245	-1528.30640	72.58727	357.19843	-1509.15601	70.93754	315.75278	-1302.38879	1012.70367	179.05562	-1480.61694	966.64014	133.34435	-1341.01392	593.29852	103.78320	-1344.54468	550.64978	105.22112	-1403.83130	591.61670	112.76829	-1397.61536	548.12433	110.23461	-1362.36584	435.97717	135.84003	-1364.99902	440.90094	225.36790	-1332.64893	282.39487	155.98450	-1330.12891	235.09740	159.57306	-1392.31165	276.22580	167.01030	-1382.40894	228.69025	165.32506	-1321.82983	101.42431	157.59567	-1333.68494	107.43739	241.56522	-1264.67151	82.88184	207.00340	-1465.49292	54.91844	236.01512	-1482.49976	66.95125	194.06668	-1453.94727	51.42323	147.58235
574	4.77500	-1300.10022	1001.47668	309.23654	-1482.36633	949.66071	393.84375	-1522.26331	601.46466	431.73199	-1547.52637	566.70978	425.13242	-1580.75903	629.05310	421.05978	-1593.65588	588.47815	417.43204	-1592.34851	508.45358	410.97043	-1596.29675	504.62427	299.65546	-1508.20166	434.25266	420.27634	-1498.80542	388.75534	423.95255	-1565.33936	414.92636	415.81113	-1552.85120	376.57806	419.51694	-1421.83313	147.76070	377.47638	-1454.69189	150.86766	297.27512	-1363.17322	154.40233	317.31454	-1513.31897	63.75380	407.16873	-1563.32300	72.65340	359.02933	-1543.94800	69.55168	318.26056	-1311.58350	1012.71869	178.77994	-1489.71277	966.15796	133.17975	-1347.02356	593.75922	103.65745	-1350.07043	551.09290	105.12407	-1409.88867	591.34595	112.71207	-1403.14453	547.96002	110.16853	-1366.63098	436.20618	135.78331	-1369.24072	441.14108	225.29684	-1335.18372	282.94278	155.89731	-1332.30347	235.55415	159.55490	-1394.78406	276.10782	167.00191	-1384.50623	228.72125	165.25238	-1322.07202	101.60233	157.59785	-1334.60461	107.38928	240.97197	-1264.86475	83.06945	207.05702	-1466.86365	55.85115	235.15674	-1482.71484	66.72921	194.14302	-1454.07971	51.31387	147.63742
575	4.78333	-1309.24573	1001.49377	308.99869	-1491.31714	949.28351	393.74881	-1533.14221	602.45081	432.34937	-1558.85767	567.78253	425.99329	-1591.28027	630.54651	421.67511	-1604.50183	590.09424	418.10291	-1604.07617	510.16101	411.54822	-1608.52319	506.21542	300.53442	-1522.66516	432.11127	420.20743	-1515.62927	386.30463	423.98813	-1582.45447	417.93140	416.22226	-1569.87439	376.72623	420.09665	-1453.09058	141.05341	377.47083	-1486.18433	145.79616	297.80435	-1394.62195	144.01524	316.74249	-1547.69849	62.69551	408.83932	-1598.04224	74.11701	361.56546	-1579.54297	69.63492	320.30417	-1320.89355	1012.68524	178.58601	-1498.86951	965.61823	133.05299	-1353.07068	594.05896	103.55181	-1355.41663	551.30493	105.04698	-1415.87439	591.04791	112.62468	-1408.44556	547.60272	109.90154	-1370.94519	436.36072	135.71533	-1373.37451	441.32639	225.26678	-1337.72253	283.44528	155.87437	-1334.38464	236.12361	159.51718	-1397.39587	276.03656	166.92224	-1386.36694	228.73688	165.18076	-1322.20703	101.72105	157.61299	-1335.00085	107.41280	240.85510	-1264.95142	83.34652	207.01694	-1466.21289	55.65144	235.34851	-1482.89832	66.50698	194.19453	-1454.22180	51.22910	147.68324
